<svg version="1.1" id="Layer_1" xmlns="http://www.w3.org/2000/svg" xmlns:xlink="http://www.w3.org/1999/xlink" x="0px" y="0px"
	 width="100%" viewBox="0 0 1024 768" enable-background="new 0 0 1024 768" xml:space="preserve">
<path fill="#3B8EA0" opacity="1.000000" stroke="none" 
	d="
M481.121643,554.708374 
	C487.003540,553.930603 489.279144,556.674744 490.253021,561.747498 
	C491.654297,569.046753 493.577026,576.245972 495.622528,584.959045 
	C499.342834,576.319397 502.460663,569.060059 505.595825,561.808289 
	C506.719788,559.208496 507.560822,556.291992 511.510468,557.221252 
	C515.230774,558.096436 519.646240,556.598755 520.866272,562.866882 
	C523.308655,575.415588 526.714294,587.777161 529.743896,600.210693 
	C530.022095,601.352234 530.390869,602.454712 529.687866,603.560547 
	C521.384766,605.728088 519.317810,604.519348 517.445190,596.598145 
	C515.727112,589.330566 513.912476,582.085815 511.958801,574.087341 
	C508.687225,578.575745 507.495636,583.376038 505.402130,587.705872 
	C504.027130,590.549683 502.572906,593.415710 501.705048,596.430420 
	C500.256775,601.461121 497.462433,602.733887 492.400238,601.597595 
	C489.303009,600.902405 488.319122,599.387146 487.714844,596.765503 
	C485.852844,588.687622 483.905121,580.629517 481.829681,571.885437 
	C478.620361,575.021301 478.007965,578.699219 476.536346,581.854980 
	C474.358459,586.525269 472.611053,591.394348 470.534149,596.114441 
	C469.180542,599.190796 462.466705,600.710938 459.850372,598.696411 
	C458.426025,597.599792 459.010284,596.320984 459.521210,595.103333 
	C464.801666,582.518066 470.131317,569.953308 475.380432,557.354980 
	C476.431732,554.831726 478.378387,554.521790 481.121643,554.708374 
z"/>
<path fill="#3B8EA0" opacity="1.000000" stroke="none" 
	d="
M334.093597,386.704803 
	C340.459381,388.214020 337.914825,392.995544 338.335175,396.601624 
	C338.761902,400.261963 336.132751,400.875031 333.468109,401.671143 
	C321.827881,405.148743 310.238281,408.798370 298.568970,412.173492 
	C296.540314,412.760284 293.673981,415.072784 292.240387,411.227478 
	C290.947113,407.758789 293.159454,402.212524 296.192810,401.272522 
	C303.663361,398.957489 311.180420,396.792755 318.674896,394.554565 
	C319.619019,394.272675 320.539948,393.913086 322.546814,393.215973 
	C313.740570,390.017334 305.921143,387.007935 297.979218,384.366943 
	C294.256134,383.128906 292.659637,381.228363 292.792084,377.145020 
	C292.924835,373.052765 294.610413,371.358337 298.458618,370.374054 
	C306.305786,368.366913 314.019684,365.838776 321.959076,362.381104 
	C315.656097,360.071472 309.354187,357.758881 303.049469,355.453918 
	C301.017395,354.711029 298.931030,354.095581 296.952820,353.231049 
	C294.004639,351.942596 292.429047,345.421906 294.331818,342.871521 
	C295.405579,341.432251 296.678192,342.027283 297.923462,342.469604 
	C310.629364,346.982910 323.306488,351.578918 336.047546,355.990448 
	C340.657013,357.586487 338.994080,361.281006 339.303314,364.356049 
	C339.605347,367.359589 338.655029,369.403046 335.427673,370.317169 
	C327.431091,372.582031 319.495972,375.063843 309.998871,377.920990 
	C318.766266,381.126373 326.245667,383.860840 334.093597,386.704803 
z"/>
<path fill="#3B8EA0" opacity="1.000000" stroke="none" 
	d="
M497.181671,208.147522 
	C492.617828,193.195938 488.317902,178.579620 484.016449,163.958237 
	C493.311096,161.455582 495.039337,162.512497 497.546661,170.417862 
	C499.844391,177.662201 501.049896,185.254669 504.447540,192.939148 
	C507.739227,184.363998 510.813416,176.472580 513.787109,168.543442 
	C514.786743,165.877838 515.849976,163.591003 519.365112,164.112701 
	C522.924316,164.640930 526.363037,164.439072 527.440063,169.517914 
	C529.150391,177.582901 531.807922,185.447006 534.323853,194.308640 
	C538.286438,186.535706 540.356689,179.156418 543.137390,172.066879 
	C546.057129,164.623169 546.964844,164.163498 555.560486,166.510345 
	C555.695374,170.967911 553.257385,174.737228 551.882019,178.743805 
	C548.694153,188.030563 544.975403,197.134018 541.705322,206.394241 
	C540.533386,209.712997 538.853394,211.393188 535.160583,210.927628 
	C531.352783,210.447556 527.731812,210.653595 526.582581,205.392807 
	C524.895264,197.668961 522.359924,190.130371 519.802551,181.169785 
	C516.849487,188.889374 514.401611,195.234772 511.993866,201.595367 
	C508.750275,210.164062 506.862762,211.069473 497.181671,208.147522 
z"/>
<path fill="#3B8EA0" opacity="1.000000" stroke="none" 
	d="
M645.318665,496.281738 
	C634.340271,509.146942 621.996399,519.822510 608.224182,529.109680 
	C588.419678,542.464661 566.557068,550.281433 543.505920,555.424316 
	C541.288147,555.919067 539.579773,555.986816 538.860413,553.308899 
	C538.107849,550.507202 539.465576,549.372925 541.958374,548.751831 
	C556.332947,545.170288 570.567932,541.332520 584.103149,534.971741 
	C594.906921,529.894653 604.995850,523.673828 614.291016,516.481384 
	C645.223145,492.546509 665.553589,461.352631 675.165771,423.402130 
	C679.230835,407.352875 680.393250,390.932281 679.772339,374.382233 
	C679.703247,372.540253 678.978699,370.239410 681.295776,369.012665 
	C684.332581,367.404907 687.024963,369.274719 686.951050,373.214264 
	C686.654724,389.003174 686.303406,404.775787 682.877747,420.320862 
	C678.908508,438.333160 672.058960,455.108582 663.133667,471.239990 
	C658.158203,480.232513 651.641724,487.922302 645.318665,496.281738 
z"/>
<path fill="#3B8EA0" opacity="1.000000" stroke="none" 
	d="
M396.756409,533.689758 
	C401.385742,528.490173 401.379059,528.498596 396.133911,524.320618 
	C392.491028,521.418945 388.928284,518.413025 385.218323,515.600586 
	C382.747253,513.727356 382.773315,511.930634 384.792938,509.818359 
	C386.595917,507.932739 387.931366,505.393463 391.206390,508.146973 
	C398.589050,514.353943 406.158997,520.339966 413.714600,526.338074 
	C415.621002,527.851440 415.524750,529.096680 414.063019,530.884033 
	C405.957550,540.794983 397.907715,550.752014 389.908447,560.748962 
	C387.949646,563.196899 386.231934,563.483276 383.720123,561.360168 
	C376.988464,555.670288 370.154083,550.095154 363.209106,544.668091 
	C360.563263,542.600525 360.550293,540.959229 362.710938,538.577393 
	C364.631989,536.459656 366.071259,534.484741 369.126709,537.204468 
	C372.972748,540.627869 377.168488,543.655273 381.132782,546.950378 
	C383.425995,548.856506 385.124237,548.592041 386.929321,546.218506 
	C388.601837,544.019409 389.102325,542.246521 386.611511,540.314514 
	C383.063812,537.562744 379.666992,534.616577 376.122528,531.860474 
	C373.759705,530.023193 374.194000,528.325439 376.009552,526.467957 
	C377.699158,524.739319 379.009918,522.143738 382.026947,524.773926 
	C385.159210,527.504578 388.438934,530.068359 391.694977,532.653687 
	C393.083160,533.755920 394.414337,535.351318 396.756409,533.689758 
z"/>
<path fill="#3B8EA0" opacity="1.000000" stroke="none" 
	d="
M620.565186,204.490967 
	C625.529175,200.477936 630.745605,200.536392 635.970764,202.540695 
	C642.544006,205.062073 647.535889,209.621338 651.425659,215.475922 
	C653.715210,218.921951 651.683350,220.411484 649.037720,222.132584 
	C646.268372,223.934189 644.659607,223.472366 643.108459,220.598038 
	C641.000610,216.692154 637.822937,213.766281 633.692017,211.987915 
	C632.090271,211.298355 630.401489,210.945953 629.031982,212.339645 
	C627.498535,213.900146 627.778748,215.844803 628.879456,217.399994 
	C631.089600,220.522415 633.577332,223.446960 635.907959,226.485779 
	C641.115173,233.275330 641.618347,238.510757 637.612000,243.770142 
	C633.764038,248.821609 627.014832,250.271805 619.908569,247.236710 
	C613.971558,244.701050 609.128540,240.690582 605.412964,235.349670 
	C600.668518,228.529709 601.121094,227.167236 609.338013,224.222672 
	C611.553650,225.407043 611.846313,227.982788 613.169495,229.830368 
	C615.541870,233.142838 618.395264,235.872955 622.035034,237.731659 
	C623.892883,238.680435 625.832642,239.309753 627.576721,237.589767 
	C629.458252,235.734207 628.457581,233.845169 627.238464,232.203369 
	C624.757568,228.862213 622.037903,225.696823 619.592407,222.331329 
	C614.875977,215.840515 615.115662,211.114120 620.565186,204.490967 
z"/>
<path fill="#3B8EA0" opacity="1.000000" stroke="none" 
	d="
M364.583130,522.371948 
	C363.076569,525.308044 361.196381,524.353699 359.384430,523.364502 
	C353.665771,520.242310 349.182251,515.854797 346.723175,509.784058 
	C344.486603,504.262634 344.981812,498.850006 349.550781,494.651306 
	C354.436676,490.161316 359.610626,485.972351 364.805603,481.836334 
	C367.373352,479.792053 371.737885,482.219604 372.791779,487.020508 
	C373.364960,489.631775 374.762787,490.396515 376.508636,491.610168 
	C381.394104,495.006561 384.726959,499.427032 384.237183,505.750610 
	C383.710022,512.557617 376.644806,516.692200 370.372925,514.027771 
	C367.373444,512.753479 365.162964,510.565674 363.057617,508.167297 
	C361.457214,506.344116 360.333923,503.979309 357.848053,503.039642 
	C354.665405,508.000977 355.237000,508.980438 366.158936,517.432129 
	C366.425629,519.182861 365.225494,520.521423 364.583130,522.371948 
M366.841553,501.811249 
	C368.394989,503.537781 369.877411,505.537231 372.643494,504.368103 
	C373.768463,503.892670 374.511200,502.833588 374.308502,501.581970 
	C373.879211,498.932007 372.194733,497.137787 369.824127,496.056366 
	C367.549164,495.018585 365.372406,494.817322 363.864075,497.756866 
	C364.696930,498.920044 365.547089,500.107422 366.841553,501.811249 
z"/>
<path fill="#3B8EA0" opacity="1.000000" stroke="none" 
	d="
M323.846527,340.512360 
	C314.319336,335.647919 310.666809,327.499847 313.451904,317.994629 
	C316.239685,308.480225 323.285706,303.700989 332.992218,304.740601 
	C338.962250,305.380005 339.839355,306.783875 337.959198,312.429138 
	C336.032654,318.213745 334.186707,324.025208 332.242523,330.018951 
	C338.125458,329.967804 341.194214,325.674957 340.583038,318.809692 
	C340.373291,316.453674 340.284790,314.757660 342.809052,313.507507 
	C346.997650,311.433105 348.237823,311.886108 349.360779,316.587341 
	C353.012756,331.876160 339.632996,344.681335 323.846527,340.512360 
M326.531250,324.780853 
	C327.286804,321.490570 329.392456,318.521179 329.075470,314.902618 
	C323.117706,315.646332 319.747650,320.876678 321.992554,325.615234 
	C322.489746,326.664734 322.989899,327.887207 324.315063,327.922089 
	C325.855835,327.962646 325.738556,326.369720 326.531250,324.780853 
z"/>
<path fill="#3B8EA0" opacity="1.000000" stroke="none" 
	d="
M566.156738,185.846466 
	C581.836914,180.946152 595.159119,191.586823 592.322510,206.228241 
	C591.523804,210.351089 589.906494,211.989716 585.533752,210.283401 
	C579.569092,207.955902 573.427612,206.081543 567.159851,203.943985 
	C567.120728,209.637848 572.015320,213.169586 578.276428,212.515579 
	C580.305298,212.303650 581.988770,211.724762 583.333252,214.140198 
	C585.995178,218.922501 585.320374,220.580948 579.852539,221.419647 
	C569.935486,222.940811 559.268982,216.793198 556.262207,207.823441 
	C553.545349,199.718475 557.418274,190.852966 566.156738,185.846466 
M576.108704,193.365204 
	C573.228271,193.099823 570.596619,193.359100 568.917358,196.897568 
	C573.547913,198.432831 577.607910,200.710190 582.550171,201.321014 
	C582.609558,196.623795 580.080200,194.781723 576.108704,193.365204 
z"/>
<path fill="#3B8EA0" opacity="1.000000" stroke="none" 
	d="
M454.756683,574.830933 
	C442.812225,584.907715 425.039124,576.751404 423.555237,563.614197 
	C423.371704,561.989197 423.421997,560.296143 423.646881,558.673889 
	C424.608093,551.740662 425.947601,550.983765 432.272247,553.517456 
	C437.802368,555.732910 443.348389,557.908813 448.979431,560.138550 
	C449.752533,554.689514 445.949371,551.231750 439.281982,551.264709 
	C436.222504,551.279846 433.941620,551.125916 432.681732,547.627563 
	C431.427368,544.144714 432.474243,542.754089 435.775330,542.018555 
	C442.941650,540.421875 453.687317,545.032227 457.966919,551.668213 
	C462.047394,557.995422 461.417023,566.418030 456.350800,573.088257 
	C455.949890,573.616089 455.474030,574.087036 454.756683,574.830933 
M446.522003,567.076721 
	C442.579102,564.714600 438.323364,563.202515 433.457672,561.896790 
	C433.329742,565.973450 434.999481,568.342834 438.191925,569.571960 
	C441.404114,570.808533 444.605408,571.252319 446.522003,567.076721 
z"/>
<path fill="#3B8EA0" opacity="1.000000" stroke="none" 
	d="
M423.040375,218.102737 
	C419.451935,220.481812 415.625732,221.852585 412.753113,224.743805 
	C416.476532,227.873672 421.601349,227.045441 425.226898,222.815186 
	C425.977936,221.938889 426.443512,220.815582 427.205414,219.951370 
	C429.477661,217.373962 431.903137,219.319031 434.057373,220.080444 
	C436.464813,220.931351 435.805847,223.085464 434.897827,224.708267 
	C431.062469,231.562790 425.129120,235.453156 417.361816,236.349823 
	C409.673645,237.237366 403.767487,234.370514 399.800537,227.584137 
	C394.815002,219.055222 397.390320,208.697662 405.980011,203.134064 
	C414.933533,197.334854 425.196564,199.185944 431.094269,207.476151 
	C433.371613,210.677292 433.039307,212.781326 429.408142,214.460907 
	C427.306610,215.432968 425.366150,216.753387 423.040375,218.102737 
M407.851624,214.262192 
	C407.502930,215.635910 406.674988,217.088150 408.687805,218.313126 
	C412.519409,216.119934 416.699829,214.355515 420.122864,211.134659 
	C415.126740,207.477554 412.021912,208.198074 407.851624,214.262192 
z"/>
<path fill="#3B8EA0" opacity="1.000000" stroke="none" 
	d="
M646.916931,271.605591 
	C633.481018,264.637390 631.974121,253.443146 642.922729,243.627686 
	C646.267700,240.628860 649.878967,237.903305 653.029785,234.717865 
	C656.680359,231.027115 658.500916,233.688187 661.008301,236.166992 
	C664.053589,239.177551 663.046631,241.151505 660.271790,243.434097 
	C656.933655,246.180145 653.722473,249.090134 650.572205,252.052475 
	C646.639587,255.750580 646.137634,258.923340 648.788757,262.000854 
	C651.670532,265.346069 655.054504,265.575836 659.361145,262.225220 
	C663.425598,259.063049 667.200806,255.530319 671.137268,252.200821 
	C671.743591,251.688004 672.532715,251.391327 673.276001,250.972931 
	C673.947571,251.448563 674.536133,251.767410 675.005005,252.212311 
	C681.093506,257.989716 681.036011,258.436554 674.610107,263.954498 
	C669.435059,268.398407 664.346863,272.944031 659.246338,277.473969 
	C654.101440,282.043335 649.841003,280.783691 647.885132,274.019409 
	C647.667236,273.265961 647.984619,272.357758 646.916931,271.605591 
z"/>
<path fill="#3B8EA0" opacity="1.000000" stroke="none" 
	d="
M325.705383,268.071533 
	C330.765533,259.016602 330.769745,259.010620 338.652924,264.557068 
	C344.907043,268.957367 351.211731,273.289856 357.366730,277.825134 
	C359.910583,279.699585 361.639282,279.675385 363.457581,276.924042 
	C366.114166,272.904205 369.071594,269.084503 371.793457,265.106079 
	C373.522888,262.578217 375.356476,262.525940 377.603729,264.358704 
	C379.684448,266.055634 382.044617,267.329315 379.554352,270.689026 
	C374.409027,277.630890 369.552368,284.786865 364.591064,291.864716 
	C363.332886,293.659729 361.969360,294.987610 359.686768,293.369629 
	C348.569611,285.489380 337.449951,277.612640 326.354401,269.702026 
	C326.002075,269.450836 325.902283,268.845459 325.705383,268.071533 
z"/>
<path fill="#3B8EA0" opacity="1.000000" stroke="none" 
	d="
M375.818298,207.693512 
	C382.554474,203.797318 383.057953,204.052032 384.976562,212.203964 
	C382.870728,214.289261 377.880157,215.533813 381.471405,220.127960 
	C382.901154,220.349548 383.668884,219.636414 384.388611,218.973099 
	C386.688232,216.853821 388.670135,215.560852 391.451569,218.731842 
	C394.106537,221.758667 393.334808,223.560883 390.446411,225.498093 
	C388.013489,227.129822 388.526337,228.829529 390.276550,230.841675 
	C394.210419,235.364151 397.807495,240.183456 401.809967,244.641037 
	C404.538422,247.679779 402.829407,249.376984 400.451874,251.017029 
	C398.220154,252.556503 396.273376,255.898544 393.162018,251.782242 
	C389.549896,247.003433 385.513489,242.546967 381.716705,237.905197 
	C380.332611,236.213058 379.084015,234.910919 376.816772,236.752029 
	C375.018433,238.212372 373.703094,236.925400 372.680573,235.503693 
	C371.594971,233.994217 369.253845,232.662781 371.059845,230.413834 
	C372.391235,228.755920 372.553558,227.448975 371.643616,225.483109 
	C368.032745,217.682007 368.912872,214.064316 375.818298,207.693512 
z"/>
<path fill="#3B8EA0" opacity="1.000000" stroke="none" 
	d="
M689.905762,298.928528 
	C690.997009,298.347961 691.837219,297.689148 691.526306,296.858856 
	C690.233154,293.405090 692.186584,292.231415 694.919678,290.951569 
	C698.324097,289.357300 699.283325,291.900299 700.575989,293.792969 
	C710.859802,291.254150 716.686096,293.952667 719.762817,303.651703 
	C720.464233,305.862640 721.658447,308.990448 718.277405,309.992249 
	C715.530273,310.806305 712.264221,311.275238 711.355286,306.779968 
	C710.965027,304.849609 709.387817,302.927002 706.950317,303.910248 
	C704.245667,305.001282 705.890808,307.183380 706.611328,308.555176 
	C708.378906,311.920593 706.877747,313.172424 703.942871,314.508850 
	C700.635986,316.014709 699.363159,314.642761 698.518738,311.795654 
	C697.549438,308.527374 695.714783,308.404022 692.847961,309.796539 
	C687.912415,312.193878 682.657288,313.947510 677.781250,316.448792 
	C673.920776,318.429169 672.283020,317.231384 670.693481,313.601318 
	C669.030151,309.802917 669.242432,307.600586 673.548279,306.026520 
	C679.009277,304.030243 684.250732,301.433441 689.905762,298.928528 
z"/>
<path fill="#3B8EA0" opacity="1.000000" stroke="none" 
	d="
M355.973328,459.131561 
	C363.981445,469.528778 362.582642,476.403046 351.548462,482.373535 
	C349.353485,483.561218 347.147278,484.729919 344.980774,485.967773 
	C343.991577,486.532990 342.387817,487.336945 343.024475,488.471771 
	C345.174957,492.304962 342.483215,493.330963 339.967621,494.854156 
	C336.902313,496.710236 336.003815,493.589600 334.040833,492.496887 
	C333.329132,492.765076 332.496246,492.937988 331.817841,493.359467 
	C329.142029,495.021820 326.847290,495.969055 325.052307,492.072540 
	C323.581635,488.880005 320.902466,485.866669 326.220947,483.734436 
	C328.815552,482.694244 328.657684,480.899292 327.336121,478.940125 
	C325.342438,475.984650 325.792145,474.063843 329.110748,472.199310 
	C332.727234,470.167419 333.810699,472.342499 335.160553,474.784424 
	C335.628845,475.631592 336.242950,476.398132 337.074860,477.618866 
	C340.815186,475.541748 344.430237,473.564697 348.015015,471.534058 
	C350.959320,469.866241 351.554260,467.487732 349.316193,464.964325 
	C347.023743,462.379608 348.742065,460.863373 350.277679,459.040741 
	C352.092987,456.886169 353.846832,456.920197 355.973328,459.131561 
z"/>
<path fill="#3B8EA0" opacity="1.000000" stroke="none" 
	d="
M668.141602,291.261444 
	C664.562378,293.500671 661.639771,296.130249 658.631409,290.601685 
	C656.550293,286.776917 656.803345,284.853973 660.643982,282.736481 
	C667.346741,279.040985 673.746521,274.799011 680.407837,271.023529 
	C682.366638,269.913330 684.664551,266.809692 686.869873,269.195526 
	C689.108582,271.617401 692.668762,274.244202 690.146729,278.459778 
	C691.550415,279.455902 692.818420,280.059265 693.675232,281.026764 
	C695.348999,282.916870 699.026184,284.388672 695.863342,287.781494 
	C692.535583,291.351257 690.164734,291.392059 687.062378,288.020599 
	C684.182678,284.891083 680.831543,284.271851 677.134277,286.128021 
	C674.164124,287.619141 671.351135,289.423492 668.141602,291.261444 
z"/>
<path fill="#3B8EA0" opacity="1.000000" stroke="none" 
	d="
M362.229950,238.124512 
	C364.420624,235.557220 366.181458,235.794281 368.285065,237.875504 
	C374.783936,244.305115 381.324524,250.699509 388.046082,256.893646 
	C390.692474,259.332397 390.012115,261.131226 387.745148,262.960693 
	C385.711487,264.601807 384.381195,268.739838 380.649139,265.156464 
	C373.816803,258.596313 366.950928,252.071014 360.082581,245.548553 
	C356.321716,241.977097 360.476929,240.535583 362.229950,238.124512 
z"/>
<path fill="#3B8EA0" opacity="1.000000" stroke="none" 
	d="
M461.052643,204.708191 
	C466.064850,205.071198 467.969452,207.924057 467.554260,212.134842 
	C467.192993,215.799026 464.438721,217.716507 460.966553,217.752716 
	C457.394409,217.789978 454.900299,215.551331 454.413239,212.050537 
	C453.793243,207.593979 456.355530,205.285904 461.052643,204.708191 
z"/>
<path fill="#3B8EA0" opacity="1.000000" stroke="none" 
	d="
M343.316528,430.255005 
	C346.901794,432.260498 347.993927,435.080109 346.936310,438.487885 
	C345.993073,441.527222 343.450623,442.999054 340.411163,443.017700 
	C337.449432,443.035828 335.477875,441.141357 334.438385,438.464691 
	C332.462280,433.376251 336.466522,429.462616 343.316528,430.255005 
z"/>
<path fill="#3B8EA0" opacity="1.000000" stroke="none" 
	d="
M683.516968,341.224854 
	C686.606567,339.102142 689.464966,339.056885 692.116638,341.085968 
	C694.491760,342.903381 694.879333,345.549500 694.185059,348.295044 
	C693.554504,350.788391 691.710876,352.144318 689.267273,352.685028 
	C686.552063,353.285858 684.221802,352.409668 682.737183,350.169617 
	C680.818787,347.274963 680.830139,344.256714 683.516968,341.224854 
z"/>
<path fill="#3B8EA0" opacity="1.000000" stroke="none" 
	d="
M358.033508,236.884491 
	C354.537476,239.480881 351.487885,239.482666 349.058502,236.140549 
	C346.773834,232.997513 347.831573,230.099228 350.452881,227.715958 
	C352.956146,225.440048 355.946320,224.734238 358.499725,227.295532 
	C361.424347,230.229248 361.086304,233.555679 358.033508,236.884491 
z"/>
</svg>